<mxfile host="app.diagrams.net" modified="2022-02-09T15:47:45.727Z" agent="5.0 (X11; Linux x86_64) AppleWebKit/537.36 (KHTML, like Gecko) Chrome/97.0.4692.99 Safari/537.36" etag="6UqbeHF-1WoopRPT5K5A" version="16.5.5" type="github">
  <diagram id="kgpKYQtTHZ0yAKxKKP6v" name="Page-1">
    <mxGraphModel dx="3729" dy="1113" grid="1" gridSize="10" guides="1" tooltips="1" connect="1" arrows="1" fold="1" page="1" pageScale="1" pageWidth="900" pageHeight="1600" math="0" shadow="0">
      <root>
        <mxCell id="0" />
        <mxCell id="1" parent="0" />
        <mxCell id="qr6tpuGKucQjqDc1vl8H-19" value="return products" style="html=1;verticalAlign=bottom;endArrow=open;dashed=1;endSize=8;rounded=0;fontSize=12;" parent="1" edge="1">
          <mxGeometry x="-0.0476" relative="1" as="geometry">
            <mxPoint x="-1060.5" y="406" as="targetPoint" />
            <mxPoint x="-920.5" y="406" as="sourcePoint" />
            <mxPoint as="offset" />
          </mxGeometry>
        </mxCell>
        <mxCell id="qr6tpuGKucQjqDc1vl8H-2" value="gateway" style="shape=umlLifeline;perimeter=lifelinePerimeter;container=1;collapsible=0;recursiveResize=0;rounded=0;shadow=0;strokeWidth=1;" parent="1" vertex="1">
          <mxGeometry x="-1550" y="160" width="100" height="370" as="geometry" />
        </mxCell>
        <mxCell id="qr6tpuGKucQjqDc1vl8H-4" value="" style="shape=umlLifeline;participant=umlActor;perimeter=lifelinePerimeter;whiteSpace=wrap;html=1;container=1;collapsible=0;recursiveResize=0;verticalAlign=top;spacingTop=36;outlineConnect=0;" parent="1" vertex="1">
          <mxGeometry x="-1660" y="160" width="20" height="370" as="geometry" />
        </mxCell>
        <mxCell id="qr6tpuGKucQjqDc1vl8H-5" value="/products" style="text;html=1;strokeColor=none;fillColor=none;align=center;verticalAlign=middle;whiteSpace=wrap;rounded=0;fontSize=30;" parent="1" vertex="1">
          <mxGeometry x="-1350" y="100" width="60" height="30" as="geometry" />
        </mxCell>
        <mxCell id="qr6tpuGKucQjqDc1vl8H-6" value="frontend" style="shape=umlLifeline;perimeter=lifelinePerimeter;container=1;collapsible=0;recursiveResize=0;rounded=0;shadow=0;strokeWidth=1;" parent="1" vertex="1">
          <mxGeometry x="-1410" y="160" width="100" height="370" as="geometry" />
        </mxCell>
        <mxCell id="qr6tpuGKucQjqDc1vl8H-25" value="" style="html=1;points=[];perimeter=orthogonalPerimeter;fontSize=12;" parent="qr6tpuGKucQjqDc1vl8H-6" vertex="1">
          <mxGeometry x="45" y="314" width="10" height="30" as="geometry" />
        </mxCell>
        <mxCell id="qr6tpuGKucQjqDc1vl8H-26" value="" style="html=1;points=[];perimeter=orthogonalPerimeter;fontSize=12;" parent="qr6tpuGKucQjqDc1vl8H-6" vertex="1">
          <mxGeometry x="45" y="80" width="10" height="30" as="geometry" />
        </mxCell>
        <mxCell id="qr6tpuGKucQjqDc1vl8H-8" value="navigates to /products" style="html=1;verticalAlign=bottom;endArrow=block;rounded=0;fontSize=12;" parent="1" edge="1">
          <mxGeometry width="80" relative="1" as="geometry">
            <mxPoint x="-1650.5" y="236" as="sourcePoint" />
            <mxPoint x="-1500.5" y="236" as="targetPoint" />
            <Array as="points">
              <mxPoint x="-1610" y="236" />
            </Array>
          </mxGeometry>
        </mxCell>
        <mxCell id="qr6tpuGKucQjqDc1vl8H-9" value="forward request" style="html=1;verticalAlign=bottom;endArrow=block;rounded=0;fontSize=12;" parent="1" edge="1">
          <mxGeometry width="80" relative="1" as="geometry">
            <mxPoint x="-1500.5" y="237" as="sourcePoint" />
            <mxPoint x="-1360.5" y="237" as="targetPoint" />
            <Array as="points">
              <mxPoint x="-1420" y="237" />
            </Array>
          </mxGeometry>
        </mxCell>
        <mxCell id="qr6tpuGKucQjqDc1vl8H-10" value="api" style="shape=umlLifeline;perimeter=lifelinePerimeter;container=1;collapsible=0;recursiveResize=0;rounded=0;shadow=0;strokeWidth=1;" parent="1" vertex="1">
          <mxGeometry x="-1270" y="160" width="100" height="370" as="geometry" />
        </mxCell>
        <mxCell id="qr6tpuGKucQjqDc1vl8H-29" value="" style="html=1;points=[];perimeter=orthogonalPerimeter;fontSize=30;" parent="qr6tpuGKucQjqDc1vl8H-10" vertex="1">
          <mxGeometry x="45" y="143" width="10" height="30" as="geometry" />
        </mxCell>
        <mxCell id="qr6tpuGKucQjqDc1vl8H-33" value="" style="html=1;points=[];perimeter=orthogonalPerimeter;fontSize=30;" parent="qr6tpuGKucQjqDc1vl8H-10" vertex="1">
          <mxGeometry x="45" y="251" width="10" height="30" as="geometry" />
        </mxCell>
        <mxCell id="qr6tpuGKucQjqDc1vl8H-11" value="/api/products" style="html=1;verticalAlign=bottom;endArrow=block;rounded=0;fontSize=12;" parent="1" source="qr6tpuGKucQjqDc1vl8H-6" target="qr6tpuGKucQjqDc1vl8H-2" edge="1">
          <mxGeometry width="80" relative="1" as="geometry">
            <mxPoint x="-1350" y="340" as="sourcePoint" />
            <mxPoint x="-1430" y="340" as="targetPoint" />
            <Array as="points">
              <mxPoint x="-1430" y="270" />
            </Array>
          </mxGeometry>
        </mxCell>
        <mxCell id="qr6tpuGKucQjqDc1vl8H-12" value="forward request" style="html=1;verticalAlign=bottom;endArrow=block;rounded=0;fontSize=12;" parent="1" source="qr6tpuGKucQjqDc1vl8H-2" target="qr6tpuGKucQjqDc1vl8H-10" edge="1">
          <mxGeometry x="-0.4964" width="80" relative="1" as="geometry">
            <mxPoint x="-1430" y="340" as="sourcePoint" />
            <mxPoint x="-1350" y="340" as="targetPoint" />
            <Array as="points">
              <mxPoint x="-1410" y="300" />
            </Array>
            <mxPoint as="offset" />
          </mxGeometry>
        </mxCell>
        <mxCell id="qr6tpuGKucQjqDc1vl8H-13" value="mq" style="shape=umlLifeline;perimeter=lifelinePerimeter;container=1;collapsible=0;recursiveResize=0;rounded=0;shadow=0;strokeWidth=1;" parent="1" vertex="1">
          <mxGeometry x="-1110" y="160" width="100" height="370" as="geometry" />
        </mxCell>
        <mxCell id="qr6tpuGKucQjqDc1vl8H-14" value="getAllProducts Queue" style="html=1;verticalAlign=bottom;endArrow=block;rounded=0;fontSize=12;" parent="1" edge="1">
          <mxGeometry x="0.0596" y="-1" width="80" relative="1" as="geometry">
            <mxPoint x="-1220" y="334" as="sourcePoint" />
            <mxPoint x="-1060.5" y="334" as="targetPoint" />
            <Array as="points">
              <mxPoint x="-1160" y="334" />
            </Array>
            <mxPoint as="offset" />
          </mxGeometry>
        </mxCell>
        <mxCell id="qr6tpuGKucQjqDc1vl8H-15" value="product" style="shape=umlLifeline;perimeter=lifelinePerimeter;container=1;collapsible=0;recursiveResize=0;rounded=0;shadow=0;strokeWidth=1;" parent="1" vertex="1">
          <mxGeometry x="-970" y="160" width="100" height="370" as="geometry" />
        </mxCell>
        <mxCell id="qr6tpuGKucQjqDc1vl8H-17" value="" style="html=1;points=[];perimeter=orthogonalPerimeter;fontSize=12;" parent="qr6tpuGKucQjqDc1vl8H-15" vertex="1">
          <mxGeometry x="45" y="176" width="10" height="24" as="geometry" />
        </mxCell>
        <mxCell id="0QWHYP2Z4MqOzm-gQYaC-5" value="" style="html=1;points=[];perimeter=orthogonalPerimeter;fontSize=12;" vertex="1" parent="qr6tpuGKucQjqDc1vl8H-15">
          <mxGeometry x="45" y="230" width="10" height="16" as="geometry" />
        </mxCell>
        <mxCell id="qr6tpuGKucQjqDc1vl8H-16" value="deliver message" style="html=1;verticalAlign=bottom;endArrow=block;rounded=0;fontSize=12;" parent="1" edge="1">
          <mxGeometry x="0.0083" width="80" relative="1" as="geometry">
            <mxPoint x="-1060.6764705882354" y="334" as="sourcePoint" />
            <mxPoint x="-920.5" y="334" as="targetPoint" />
            <Array as="points">
              <mxPoint x="-1040" y="334" />
            </Array>
            <mxPoint x="1" as="offset" />
          </mxGeometry>
        </mxCell>
        <mxCell id="qr6tpuGKucQjqDc1vl8H-20" value="deliver message" style="html=1;verticalAlign=bottom;endArrow=open;dashed=1;endSize=8;rounded=0;fontSize=12;" parent="1" edge="1">
          <mxGeometry x="-0.0476" relative="1" as="geometry">
            <mxPoint x="-1220.5" y="406" as="targetPoint" />
            <mxPoint x="-1060.5" y="406" as="sourcePoint" />
            <mxPoint as="offset" />
            <Array as="points">
              <mxPoint x="-1160" y="406" />
            </Array>
          </mxGeometry>
        </mxCell>
        <mxCell id="qr6tpuGKucQjqDc1vl8H-21" value="respond with products" style="html=1;verticalAlign=bottom;endArrow=open;dashed=1;endSize=8;rounded=0;fontSize=12;exitX=0.51;exitY=0.627;exitDx=0;exitDy=0;exitPerimeter=0;" parent="1" edge="1">
          <mxGeometry x="-0.4542" relative="1" as="geometry">
            <mxPoint x="-1500.5" y="442.1" as="targetPoint" />
            <mxPoint x="-1219" y="442.1" as="sourcePoint" />
            <mxPoint as="offset" />
            <Array as="points" />
          </mxGeometry>
        </mxCell>
        <mxCell id="qr6tpuGKucQjqDc1vl8H-22" value="forward response" style="html=1;verticalAlign=bottom;endArrow=open;dashed=1;endSize=8;rounded=0;fontSize=12;entryX=0.51;entryY=0.613;entryDx=0;entryDy=0;entryPerimeter=0;" parent="1" edge="1">
          <mxGeometry relative="1" as="geometry">
            <mxPoint x="-1500.5" y="468.9" as="sourcePoint" />
            <mxPoint x="-1359" y="468.9" as="targetPoint" />
          </mxGeometry>
        </mxCell>
        <mxCell id="qr6tpuGKucQjqDc1vl8H-23" value="respond with html" style="html=1;verticalAlign=bottom;endArrow=open;dashed=1;endSize=8;rounded=0;fontSize=12;" parent="1" edge="1">
          <mxGeometry relative="1" as="geometry">
            <mxPoint x="-1360.5" y="504" as="sourcePoint" />
            <mxPoint x="-1500.5" y="504" as="targetPoint" />
            <Array as="points">
              <mxPoint x="-1420" y="504" />
            </Array>
          </mxGeometry>
        </mxCell>
        <mxCell id="qr6tpuGKucQjqDc1vl8H-27" value="forward response" style="html=1;verticalAlign=bottom;endArrow=open;dashed=1;endSize=8;rounded=0;fontSize=12;exitX=0.51;exitY=0.813;exitDx=0;exitDy=0;exitPerimeter=0;" parent="1" edge="1">
          <mxGeometry relative="1" as="geometry">
            <mxPoint x="-1499" y="503.9" as="sourcePoint" />
            <mxPoint x="-1650.5" y="503.9" as="targetPoint" />
          </mxGeometry>
        </mxCell>
        <mxCell id="0QWHYP2Z4MqOzm-gQYaC-1" value="mongodb" style="shape=umlLifeline;perimeter=lifelinePerimeter;container=1;collapsible=0;recursiveResize=0;rounded=0;shadow=0;strokeWidth=1;" vertex="1" parent="1">
          <mxGeometry x="-840" y="160" width="100" height="370" as="geometry" />
        </mxCell>
        <mxCell id="0QWHYP2Z4MqOzm-gQYaC-2" value="" style="html=1;points=[];perimeter=orthogonalPerimeter;fontSize=12;" vertex="1" parent="0QWHYP2Z4MqOzm-gQYaC-1">
          <mxGeometry x="45" y="200" width="10" height="30" as="geometry" />
        </mxCell>
        <mxCell id="0QWHYP2Z4MqOzm-gQYaC-6" value="resolve" style="html=1;verticalAlign=bottom;endArrow=open;dashed=1;endSize=8;rounded=0;entryX=1;entryY=0.15;entryDx=0;entryDy=0;entryPerimeter=0;" edge="1" parent="1" target="0QWHYP2Z4MqOzm-gQYaC-5">
          <mxGeometry x="-0.0442" relative="1" as="geometry">
            <mxPoint x="-790.4999999999995" y="394" as="sourcePoint" />
            <mxPoint x="-1000" y="401" as="targetPoint" />
            <mxPoint as="offset" />
          </mxGeometry>
        </mxCell>
        <mxCell id="0QWHYP2Z4MqOzm-gQYaC-8" value="query" style="html=1;verticalAlign=bottom;endArrow=block;rounded=0;" edge="1" parent="1" source="qr6tpuGKucQjqDc1vl8H-15" target="0QWHYP2Z4MqOzm-gQYaC-1">
          <mxGeometry x="0.0843" width="80" relative="1" as="geometry">
            <mxPoint x="-870" y="510" as="sourcePoint" />
            <mxPoint x="-790" y="510" as="targetPoint" />
            <Array as="points">
              <mxPoint x="-880" y="360" />
              <mxPoint x="-820" y="360" />
            </Array>
            <mxPoint as="offset" />
          </mxGeometry>
        </mxCell>
      </root>
    </mxGraphModel>
  </diagram>
</mxfile>
